<?xml version="1.0" standalone="no"?>
<!DOCTYPE svg PUBLIC "-//W3C//DTD SVG 20010904//EN"
 "http://www.w3.org/TR/2001/REC-SVG-20010904/DTD/svg10.dtd">
<svg version="1.0" xmlns="http://www.w3.org/2000/svg"
 width="6127.000000pt" height="1568.000000pt" viewBox="0 0 6127.000000 1568.000000"
 preserveAspectRatio="xMidYMid meet">
<style>
        g {
            fill: black;
        }
        @media (prefers-color-scheme: dark) {
            g { fill: white; }
        }
    </style>
<g transform="translate(0.000000,1568.000000) scale(0.100000,-0.100000)" stroke="none">
<path d="M3208 13917 c-2257 -1302 -3053 -1765 -3045 -1773 10 -9 3450 -2067
4061 -2429 l145 -87 3091 1783 c1700 980 3087 1786 3083 1790 -5 4 -966 562
-2138 1239 -1172 678 -2132 1233 -2135 1235 -3 2 -1381 -789 -3062 -1758z"/>
<path d="M10572 9748 l3 -3433 2098 -1253 c1154 -690 2100 -1252 2102 -1250 2
2 5 1563 7 3468 l3 3465 -2090 1208 c-1149 664 -2098 1212 -2108 1218 -16 9
-17 -155 -15 -3423z"/>
<path d="M6 8412 c-6 -2846 -5 -3467 6 -3477 9 -8 4111 -2383 4201 -2432 4 -2
7 1541 7 3429 l-1 3433 -1432 855 c-788 470 -1734 1035 -2103 1256 l-671 401
-7 -3465z"/>
<path d="M59115 10039 c-55 -5 -161 -20 -236 -34 -748 -136 -1236 -579 -1379
-1250 -28 -130 -38 -448 -20 -603 63 -543 341 -913 838 -1116 236 -97 383
-129 967 -210 220 -31 436 -65 480 -77 198 -50 344 -157 415 -302 58 -118 73
-189 74 -337 1 -193 -46 -327 -153 -443 -126 -136 -301 -216 -566 -259 -103
-16 -499 -16 -620 0 -397 55 -689 173 -929 377 l-68 58 -329 -329 -329 -329
43 -43 c61 -63 228 -196 332 -265 132 -87 345 -188 502 -240 268 -88 514 -130
871 -149 787 -42 1426 154 1831 562 344 347 483 825 405 1399 -68 506 -318
868 -735 1065 -231 110 -414 153 -1006 236 -469 66 -555 85 -698 155 -210 104
-316 243 -345 453 -19 141 13 307 83 432 45 80 177 208 262 252 178 93 301
119 561 118 275 0 428 -21 623 -86 138 -46 265 -113 384 -202 l97 -73 320 313
c176 172 320 315 320 318 0 8 -142 127 -222 187 -272 202 -621 339 -1013 397
-227 34 -537 44 -760 25z"/>
<path d="M18575 9998 c-3 -7 -4 -1239 -3 -2738 l3 -2725 1793 -3 1792 -2 0
455 0 455 -1280 0 -1280 0 0 700 0 700 1090 0 1090 0 0 455 0 455 -1090 0
-1090 0 0 675 0 675 1280 0 1280 0 0 455 0 455 -1790 0 c-1423 0 -1792 -3
-1795 -12z"/>
<path d="M23900 7270 l0 -2740 1765 0 1765 0 0 455 0 455 -1255 0 -1255 0 0
2285 0 2285 -510 0 -510 0 0 -2740z"/>
<path d="M28985 9998 c-3 -7 -4 -1239 -3 -2738 l3 -2725 1793 -3 1792 -2 0
455 0 455 -1280 0 -1280 0 0 700 0 700 1090 0 1090 0 0 455 0 455 -1090 0
-1090 0 0 675 0 675 1280 0 1280 0 0 455 0 455 -1790 0 c-1423 0 -1792 -3
-1795 -12z"/>
<path d="M34290 7255 l0 -2755 490 0 490 0 2 1836 3 1836 754 -1287 c415 -707
757 -1282 761 -1278 4 4 342 584 751 1287 l744 1279 3 -1837 2 -1836 490 0
490 0 0 2755 0 2755 -496 -2 -496 -3 -746 -1237 c-410 -681 -749 -1238 -752
-1238 -3 0 -340 558 -750 1240 l-745 1240 -497 0 -498 0 0 -2755z"/>
<path d="M41225 9998 c-3 -7 -4 -1239 -3 -2738 l3 -2725 1793 -3 1792 -2 0
455 0 455 -1280 0 -1280 0 0 700 0 700 1090 0 1090 0 0 455 0 455 -1090 0
-1090 0 0 675 0 675 1280 0 1280 0 0 455 0 455 -1790 0 c-1423 0 -1792 -3
-1795 -12z"/>
<path d="M46550 7270 l0 -2740 510 0 510 0 2 1726 3 1727 1115 -1727 1115
-1726 460 3 460 2 0 2735 0 2735 -512 3 -513 2 0 -1726 0 -1727 -1116 1727
-1116 1726 -459 0 -459 0 0 -2740z"/>
<path d="M52280 9555 l0 -455 720 0 720 0 2 -2282 3 -2283 513 -3 512 -2 0
2285 0 2285 725 0 725 0 -2 453 -3 452 -1957 3 -1958 2 0 -455z"/>
<path d="M7328 4267 c-1698 -980 -3087 -1784 -3087 -1787 0 -8 4281 -2475
4290 -2473 24 7 6099 3516 6099 3523 0 9 -4193 2520 -4206 2519 -5 0 -1398
-802 -3096 -1782z"/>
</g>
</svg>
